Coordinates
version=1
nRows=10
nColumns=34
inDegrees=yes

Units are S.I. units (second, meters, Newtons, ...)
If the header above contains a line with 'inDegrees', this indicates whether rotational values are in degrees (yes) or radians (no).

endheader
time	pelvis_tilt	pelvis_list	pelvis_rotation	pelvis_tx	pelvis_ty	pelvis_tz	hip_flexion_r	hip_adduction_r	hip_rotation_r	knee_angle_r	ankle_angle_r	subtalar_angle_r	mtp_angle_r	hip_flexion_l	hip_adduction_l	hip_rotation_l	knee_angle_l	ankle_angle_l	subtalar_angle_l	mtp_angle_l	lumbar_extension	lumbar_bending	lumbar_rotation	arm_flex_r	arm_add_r	arm_rot_r	elbow_flex_r	pro_sup_r	arm_flex_l	arm_add_l	arm_rot_l	elbow_flex_l	pro_sup_l
      0.00000000	      0.80223153	      0.73765991	      1.01484943	     -0.04337927	      1.24895237	     -0.13509112	     -3.54408250	     -0.98675525	     -0.85133718	      0.85490386	      8.29271214	     -6.08806262	      0.00000000	     -4.20774759	     -3.52463163	     -3.64280667	      1.12393803	      7.55162321	     -2.92457794	      0.00000000	     -6.58786600	      0.80620086	     -1.90128564	      9.01409055	     -6.11307998	     35.73468208	     22.37326601	     69.44620954	      4.72926104	     -8.24703067	     28.65388318	     25.55982562	     60.37891830
      0.01666670	      0.46396948	      0.59767537	      0.68526145	     -0.04384011	      1.25089373	     -0.13621384	     -3.30146639	     -0.60844016	      0.38822156	      0.50266620	      9.62167506	     -5.78997257	      0.00000000	     -4.29227518	     -3.32957073	     -3.67568364	      0.00000000	      6.56582284	     -2.47162391	      0.00000000	     -5.59322934	      1.15283307	     -1.54114934	      9.07537340	     -6.18123190	     35.69002280	     21.92796036	     69.48502385	      4.82097356	     -8.07400102	     29.39202975	     26.00922942	     60.71255137
      0.03333330	     -1.09235535	      1.01405510	     -0.14503349	     -0.04231456	      1.24688310	     -0.13502124	     -1.81317994	     -0.91047694	      0.85008006	      0.00000000	      8.81094869	     -6.49909298	      0.00000000	     -2.50121603	     -2.90011439	     -4.71723382	      0.25772292	      7.48212682	     -1.51106348	      0.00000000	     -3.75625105	      0.40082746	     -0.24534068	      8.85054634	     -6.20155391	     37.33610759	     21.55790502	     70.42811279	      5.45846860	     -8.93659774	     34.79376064	     25.95151671	     63.14732555
      0.05000000	     -0.80300781	      1.40260759	     -0.31161439	     -0.04247035	      1.24812440	     -0.13430364	     -2.03337720	     -1.31862738	      0.92799005	      0.00000000	      8.93113462	     -6.66393946	      0.00000000	     -2.92507409	     -2.49112785	     -4.58202063	      0.00000000	      7.45428903	     -2.33275763	      0.00000000	     -4.12722083	     -0.36519481	      0.63339715	      8.78316350	     -6.39430020	     38.97524702	     21.69891541	     71.64431018	      6.91937821	     -9.21069528	     39.14648041	     24.55710213	     65.60628451
      0.06666670	     -0.99277982	      1.58393887	     -0.74738673	     -0.04292328	      1.24579990	     -0.13316156	     -1.87849455	     -1.47865450	      1.04644644	      0.00000000	      8.71013160	     -6.59527453	      0.00000000	     -2.77365989	     -2.28926946	     -4.56002054	      0.00000000	      7.77332863	     -2.40934539	      0.00000000	     -4.05880327	     -0.61163552	      0.87949131	      8.92122124	     -6.21317699	     39.01204842	     21.72716813	     71.70818017	      6.89318122	     -9.20082762	     39.23934250	     24.58418352	     65.69709526
      0.08333330	     -1.18419127	      1.75337066	     -0.84059207	     -0.04408881	      1.24761905	     -0.13418686	     -1.70451965	     -1.63619277	      1.85915123	      0.00000000	      9.09070237	     -6.43460224	      0.00000000	     -2.53940384	     -2.10010196	     -4.39775285	      0.00000000	      8.18721220	     -2.52888612	      0.00000000	     -3.88875183	     -0.77297422	      1.06021738	      8.91454327	     -6.09069336	     39.06193864	     21.66808257	     71.79996497	      6.98817736	     -9.13390415	     39.34004225	     24.61687662	     65.82176949
      0.10000000	     -1.99542966	      1.88651625	     -1.02903936	     -0.04384008	      1.24800262	     -0.13420292	     -0.76227772	     -1.83675335	      2.78141424	      0.00000000	      9.18913963	     -6.47343317	      0.00000000	     -1.66996948	     -1.96881054	     -4.41401353	      0.00000000	      8.28814367	     -2.70473221	      0.00000000	     -2.59312884	     -0.81710959	      1.75859450	      8.52480467	     -5.97635223	     39.07825636	     21.11766771	     72.38722755	      7.01398246	     -8.90052092	     39.65712904	     24.38660422	     66.60827903
      0.11666670	     -1.99835159	      1.93720895	     -1.00219211	     -0.04371313	      1.24426300	     -0.13411862	     -0.82359855	     -1.96598939	      2.94710297	      0.00000000	      9.12913308	     -6.38693740	      0.00000000	     -1.62951008	     -1.89347666	     -4.36048625	      0.00000000	      8.35631683	     -2.71721385	      0.00000000	     -2.53978822	     -0.75357622	      1.73315944	      8.54703363	     -5.88186742	     39.07058168	     21.14294583	     72.40696197	      7.09839988	     -8.83790924	     39.64872684	     24.40580163	     66.63418292
      0.13333330	     -2.09154885	      2.15173396	     -1.06870239	     -0.04390240	      1.24317184	     -0.13401655	     -0.71882421	     -2.21469620	      3.57980536	      0.00000000	      9.17806620	     -6.24251708	      0.00000000	     -1.55270008	     -1.64112464	     -4.28669832	      0.00000000	      8.64968008	     -2.99670023	      0.00000000	     -2.42379800	     -1.03720402	      1.76633126	      8.51168634	     -5.73599260	     38.90398871	     21.12231938	     72.51997731	      7.08356262	     -8.80429646	     39.49827231	     24.32960052	     66.78716954
      0.15000000	     -2.16480078	      2.22056417	     -0.95781312	     -0.04092520	      1.25288729	     -0.13328703	     -0.81920958	     -2.27675872	      3.82930753	      0.00000000	      9.01309777	     -6.09129287	      0.00000000	     -1.39977975	     -1.54586159	     -4.17371240	      0.00000000	      8.51345104	     -2.91649877	      0.00000000	     -2.45325327	     -0.99850842	      1.71967680	      8.32017051	     -5.66790505	     38.87005076	     21.08144193	     72.54636105	      7.07728570	     -8.72338682	     39.44551856	     24.32386938	     66.82002006
